# xmcd CD database file
#
# Track frame offsets:
#	150
#	18222
#	32027
#	48990
#	67492
#	84630
#	97827
#	115467
#	130727
#	145632
#	161265
#	175762
#	186227
#	198237
#	214190
#	228362
#	245700
#	263220
#	282497
#	286232
#
# Disc length: 3874 seconds
#
# Revision: 0
# Processed by: cddbd v1.4PL0 Copyright (c) Steve Scherf et al.
# Submitted via: CDex 1.50beta9
#
DISCID=220f2014
DTITLE=Various Artist - CDX Volume 167
DYEAR=1997
DGENRE=Country
TTITLE0=Matt King - A Woman Like You
TTITLE1=Hank Thompson and Jr Brown - Gotta' Sell Your Chickens
TTITLE2=Shelly Streeter - I Wanna Rock
TTITLE3=Kathy Mattea - Love Travels
TTITLE4=James Bonamy - Naked To The Pain
TTITLE5=River Road - Nickajack
TTITLE6=Ruby Lovett - Nothing To Prove
TTITLE7=Marty Stuart - Sweet Love
TTITLE8=Matraca Berg - That Train Don't Run
TTITLE9=Pam Tillis - The Land of the Living
TTITLE10=Clay Walker - Watch This
TTITLE11=JD Myers - When I Think About You
TTITLE12=Billy Yates - When The Walls Come Tumblin' Down
TTITLE13=Wade Hayes - Witchita Lineman
TTITLE14=Jeff Moore - Wrangler Butts
TTITLE15=Lee Roy Parnell - You Can't Get There From Here
TTITLE16=Lonestar - You Walked In
TTITLE17=Kacey Jones - 1-800-Bubba
TTITLE18=Montage 1
TTITLE19=Montage 2
EXTD=YEAR: 1997
EXTT0=
EXTT1=
EXTT2=
EXTT3=
EXTT4=
EXTT5=
EXTT6=
EXTT7=
EXTT8=
EXTT9=
EXTT10=
EXTT11=
EXTT12=
EXTT13=
EXTT14=
EXTT15=
EXTT16=
EXTT17=
EXTT18=
EXTT19=
PLAYORDER=
